<svg xmlns="http://www.w3.org/2000/svg" viewBox="0 0 64 64" fill="none" stroke="#00f3ff" stroke-width="4" stroke-linecap="round" stroke-linejoin="round">
  <circle cx="32" cy="32" r="28" stroke-opacity="0.3" fill="#0f172a" />
  <path d="M32 4 C16.5 4 4 16.5 4 32 C4 47.5 16.5 60 32 60 C47.5 60 60 47.5 60 32 C60 16.5 47.5 4 32 4 Z" stroke="#00f3ff" stroke-width="2" />
  <!-- Grid / net -->
  <path d="M4 32 L60 32" stroke="#00f3ff" stroke-width="1.5" stroke-dasharray="2 4" stroke-opacity="0.5"/>
  <path d="M32 4 L32 60" stroke="#00f3ff" stroke-width="1.5" stroke-dasharray="2 4" stroke-opacity="0.5"/>
  <!-- Network nodes -->
  <circle cx="20" cy="20" r="3" fill="#ff00ff" stroke="none"/>
  <circle cx="44" cy="24" r="4" fill="#00f3ff" stroke="none"/>
  <circle cx="28" cy="48" r="3" fill="#ff00ff" stroke="none"/>
  <circle cx="48" cy="44" r="3" fill="#00ff9f" stroke="none"/>
  <!-- Connections -->
  <path d="M20 20 L44 24 L48 44 L28 48 Z" stroke="#00f3ff" stroke-width="1.5" stroke-opacity="0.8"/>
  <path d="M20 20 L28 48" stroke="#ff00ff" stroke-width="1.5" stroke-opacity="0.6"/>
</svg>